<?xml version="1.0" encoding="UTF-8"?>
<svg id="Layer_1" xmlns="http://www.w3.org/2000/svg" version="1.1" viewBox="0 0 1600 1200">
  <!-- Generator: Adobe Illustrator 29.1.0, SVG Export Plug-In . SVG Version: 2.1.0 Build 142)  -->
  <defs>
    <style>
      .st0 {
        font-size: 60px;
      }

      .st0, .st1 {
        fill: #f9f4f4;
        font-family: XHARPLASER, XHARP;
      }

      .st1 {
        font-size: 35.2px;
      }

      .st2 {
        font-family: MaiandraGD-Regular, 'Maiandra GD';
        font-size: 36px;
      }
    </style>
  </defs>
  <g>
    <path d="M319,163.1c-3.2,1.3-6.8,4.7-8.5,8-.8,1.4-6.1,27-12,57-5.8,29.9-14.2,72.8-18.6,95.4-4.4,22.5-10.9,55.8-14.4,73.9-3.6,18.1-6.8,33.3-7.2,33.7s-23.3,2.5-50.9,4.8c-27.5,2.2-51.4,4.5-53,5.1-3.7,1.4-7.1,4.6-9.2,8.5-1.9,3.8-1.9,8.1.7,38.5,1.1,13.5,3.4,40.9,5.1,61,10.6,128.5,15,182.3,23.5,287,8.8,107.4,9.8,117.9,11.8,121.9,4.1,8.4,9.2,10.3,24.3,9,5.5-.5,29.3-2.4,52.9-4.4,23.7-1.9,73.2-6,110-9,36.9-3.1,96.9-8,133.5-11s115.8-9.5,176-14.5,123-10.1,139.5-11.5c16.5-1.3,117.6-9.7,224.6-18.5,107.1-8.8,197.3-16,200.5-16,6.1,0,13.5,1.3,83.4,15,22.8,4.4,46.2,9,52,10.1,5.8,1.2,12.4,1.9,14.7,1.6,5.2-.5,11-4.7,12.8-9.1.7-1.7,3.4-13.9,6-27.1,2.5-13.2,8.6-44.5,13.5-69.5s10.2-52.5,11.9-61c3.4-17.5,9.1-47,15.2-77.8,4.1-21,8.1-41.7,14.3-74,1.9-9.7,7.1-36.2,11.5-58.7,27.4-140.1,25.7-129.1,21.3-135.2-4.1-5.7-8.1-6.8-67.7-18.4-31.3-6-60.6-11.7-65-12.5-11.8-2.2-11.5-2.1-11.5-6.1,0-7.1-5.5-14.2-12.5-16.2-2.4-.6-11.9-.2-31.7,1.5-15.6,1.3-30.6,2.4-33.4,2.4-4.1,0-102.5-18.8-279.4-53.5-9.6-1.9-32.6-6.3-51-9.9s-61.4-12-95.5-18.6c-34.1-6.7-78-15.2-97.5-19s-80.5-15.7-135.5-26.4-144-28.1-197.7-38.6c-53.8-10.4-99.2-19-101-18.9-1.8,0-4.4.5-5.8,1ZM383.2,175.5c32.6,6.4,94,18.3,136.3,26.6,42.4,8.2,96.4,18.8,120,23.4,23.7,4.6,67.3,13.1,97,18.9s99,19.3,154,30,143,27.9,195.5,38.1,105.6,20.6,118,23,30.8,6,41,8c32.6,6.3,29.3,5.3,28.6,8.6-.7,3.6,1.1,3.9,2,.3s.9-2.5,4.8-1.8c2.2.3,52,10,110.4,21.4,105.2,20.5,106.4,20.8,109.4,23.7,3.5,3.5,4.7,8.2,3.7,13.8-1,5-25.9,132.9-42.4,217.5-6.8,34.9-17.1,88-23,118-5.8,30-11,56.5-11.5,59s-4.8,24.5-9.6,49c-4.7,24.5-9.3,45.7-10.1,47.1-2.1,3.6-6.8,6.2-11.2,6.2s-30.1-5.2-62.6-11.6c-32.4-6.4-78.8-15.4-103-20.1-24.2-4.8-46.4-9.1-49.3-9.7-5.2-1-5.3-1.1-4.7-4,.8-3.7-1.2-4-2.1-.3-.6,2.4-1,2.6-4.3,2.1-2-.3-37.3-7.1-78.6-15.2-41.2-8-111.7-21.7-156.5-30.5-44.8-8.7-107.1-20.9-138.5-27-31.3-6.1-64.9-12.6-74.5-14.5s-36.2-7-59-11.5-75.9-14.8-118-23-95.2-18.5-118-23c-59-11.5-64.3-12.5-136-26.5-35.5-6.8-66-13.2-67.7-14.1-3.6-1.9-5.6-4.5-6.7-8.7-.6-2.7,1.7-15.1,28.4-151.7,4.9-25,16.8-86.2,26.5-136s21.4-109.9,26-133.5c4.6-23.7,9.8-50.4,11.6-59.4,3-15.2,3.4-16.5,6.5-19.6,1.8-1.9,4.3-3.5,5.6-3.8,1.3-.2,2.4-.5,2.5-.6.1,0,26.9,5.1,59.5,11.4ZM1349.7,346.7c4.4,2.1,7.3,6.7,7.3,11.7s-.1,3.8-2.7,3.3c-28.5-5.2-62.1-12.3-59.8-12.5,8-.8,45.4-4,48.3-4.1,1.9,0,5,.7,6.9,1.6ZM256.9,441.8c-.6,3.8-1.4,7.4-1.8,8-.3.5-20.8,2.6-45.6,4.6-24.7,2-45.5,3.9-46,4-.8.3-.5,7.1.7,21.7.9,11.8,5.4,65.7,9.8,119.9,17.2,209.7,20.7,251,21.2,251.5s36-2.4,79.4-6c198.3-16.4,408.1-33.6,492.9-40.6l64-5.2,30,5.8c16.5,3.2,29.5,6,29,6.1-.6.2-15.8,1.5-34,2.9-35.1,2.9-36.9,3.3-38.2,8.3-.6,2.7,4.3,66.9,5.4,69.8.3.8,1.8,2.2,3.4,3,2.7,1.3,7.1,1.1,47.7-2.1,24.6-2,46.4-4,48.4-4.6,6.9-1.8,6.9-2.2,4-38.1-1.4-17.5-2.4-32-2.1-32.2.3-.3,4.4.2,9.2,1.1,6.7,1.2,8.7,1.9,8.7,3.2,0,2.7,2,25.4,2.6,29.8.5,4.1.7,4.3,3.8,4.3s3.5-.2,3.7-.4c.3-.3-.1-6.7-.7-14.3-1.6-17.6-1.6-19.9-.5-18.8.5.6,1.5,8.1,2.2,16.7l1.2,15.8h6.3l-1.3-15.2c-.7-8.3-1-15.4-.7-15.7,1.2-1.2,2.2,2.7,2.8,11.3,1.1,14.7,1.8,19.6,2.9,19.6s.6-9.9-1-24.4c-.4-3.9-.2-5.7.4-5.3s1.4,5.1,1.7,10.4c.9,12.6,1.7,18.3,2.5,18.3s.2-7.2-1.3-23.8c-.3-3.9-.1-5.2.9-5.2,1.6,0,2.2,2.8,3,14.5,1,14.2,1.1,14.7,4.8,14.3,2.5-.2,3.2-.7,3-2.3-1-11-1.4-24.5-.7-24.5,2.5.1,3.2,2.5,4.2,13.3.6,6.5,1.3,12.1,1.6,12.4,1.5,1.6,1.7-1.5.8-11.9s-.9-12.8.2-11.7.9,5.5,1.4,11.7c.6,6.3,1.3,11.6,1.6,12,1.5,1.4,1.7-1.4.9-11.8-.5-6.1-.6-11.3-.3-11.5,2-1.2,3,2.1,3.6,11.8.6,8.5,1,10.7,2.2,10.7s1.4-1.6.8-10.5c-.5-6.7-.4-10.5.2-10.5,1.1,0,1.7,3.3,2.7,14.2.4,3.8,1.1,6.8,1.7,6.8s.8-3.4.3-10.3c-.9-12.2.4-12.4,1.6-.2.9,9.1,1.5,10.9,3,10,.5-.4.6-4.5.2-9.7-.6-8.5-.5-9,1.3-8.6,1.6.3,2,1.6,2.8,9.1.9,8.6.9,8.7,3.7,8.7,5.2,0,5.4-.4,5.1-8.6-.3-6-.1-7.5,1-7.2.8.3,1.6,3.2,2.2,7.6.7,6,1.2,7.2,2.7,7.2s1.9-.8,1.9-6.5.3-6.5,1.4-6.5,1.6,1.9,2.1,6c.5,4.4,1.1,6,2.2,6s1.5-.9.9-5.5c-.5-4.4-.3-5.5.8-5.5,3.4,0,4.6,1.3,4.6,4.9s.4,4.2.9,5c1.5,2.3,3.1.2,3.1-4s.2-4,2.3-3.7c1.8.2,2.3,1,2.5,4,.4,4.8,2.2,5,2.2.3s.2-3.5.4-3.5c2,0,3.6,1.6,3.6,3.6s.6,2.4,1.5,2.4,1.5-.9,1.5-2,.7-2,1.5-2,1.5.9,1.5,2,.7,2,2,2,2-.7,2-1.5.5-1.5,1-1.5,1,.4,1,1,2.2,1,4.8,1,11.5,1.3,19.7,3c8.3,1.6,15.1,3,15.3,3s.2,1,.2,2.2c0,2,.1,2,1.8.5,2.2-2,4.2-2.1,6.6-.4,2.1,1.6,1.2,4.7-1.5,4.7s-1.9.4-1.9,1,1.1,1,2.5,1c3,0,4.3,2.4,2.5,4.5-1.7,2.1-7,1.9-8.6-.3-1.1-1.4-1.3-1.5-1.4-.2-.1,4.2,7.5,5.5,11,2s2.4-3.3,1-6c-.6-1.1-.8-3-.5-4.3l.6-2.4,7.2,1.4c4,.7,8,1.8,8.9,2.3,1,.6,2.7,1,3.8,1,2.5,0,3.6,2.5,2,4.5-1.5,1.8-7.7,2-8.3.2s-.8-.9-1.2-.5c-1.5,1.4,1.8,3.8,5.1,3.8s7.4-2.9,7.4-6,.5-1.9,2.3-1.5c1.2.3,5.3,1.1,9.2,1.9,3.8.8,7.1,1.9,7.3,2.5s1.4.8,2.6.5c2.1-.5,67.9,11.8,72,13.4,1.4.6-61.9,6.4-68.6,6.2-.9,0-1.8-.9-2-2.2-.2-1.2-.9-2.3-1.5-2.6-.9-.2-1.1.5-.7,2.6l.6,2.9-7.9.7c-4.3.3-54.1,4.4-110.8,9.1-56.6,4.6-171.4,14.1-255,21s-165.7,13.6-182.5,15-115.6,9.5-219.7,18.1c-182.6,15-189.3,15.5-192.7,13.9-7.6-3.6-6.1,8.6-20.6-167.5-7.2-87.7-16.5-200.6-20.6-250.8-7.4-89.9-7.5-91.4-5.7-95,3.5-7,3-6.9,59-11.6,28-2.4,50.9-4.2,51.1-4.1.1.1-.3,3.4-.9,7.3ZM236,547.7c0,1.2-4,22.7-4.5,24.1-.3.8-1,1-2.2.3-1-.5-3.1-1.3-4.8-1.8-3.4-1-3.8-2.1-1.3-3.7,1.3-.8,2.3-.8,3.8.2,2.4,1.5,3,1.5,3,.2s-4.3-2.8-7.2-1.8c-4.5,1.6-3.1,6.8,1.7,6.8s3,.7,4.1,1.5c1.6,1.3,1.7,1.6.4,2.5-2.1,1.4-6.7,1.2-7.3-.3-.2-.6-.7-.9-1.1-.6-.4.4.1,1.4,1,2.4,1.2,1.2,2.7,1.5,5.1,1.2,1.8-.3,3.3-.3,3.3.1,0,3.6-3.6,17.5-4.7,17.9-.9.4-1.3,2.5-1.3,7.2,0,6.9-5.7,38.2-7.2,39.2-1.1.7-32.9,3.2-33.5,2.5-.7-.7-8.3-93-7.7-93.6s46.8-4.6,55.2-4.9c2.8,0,5.2.2,5.2.6ZM215.6,652.7c-1.5,8.4-1.8,15.6-.8,19.1.6,2,1.3,4.9,1.7,6.4.4,2.2,1,2.6,3.8,2.6s13.6,2.1,26.2,4.6c12.7,2.6,26.8,5.5,31.5,6.4,8.1,1.6,8.5,1.9,9,4.7.6,3.4,2.6,3.1,2.1-.4-.2-2.1,0-2.3,2.1-1.8,1.2.4,3.1.7,4.1.7s1.7.8,1.7,1.9.8,2.9,1.8,4.2c1.5,1.8,2.9,2.3,7.3,2.3,5.3.1,5.4.2,5.7,3.2.3,2.6-.1,3.3-2,3.8-4.2,1.1-8.8.7-9.4-.9-.8-1.9-2.4-2-2.4-.1,0,2.7,4.1,4.6,8.4,4,5.8-.9,8.6-2.9,8.6-6.2,0-4.8-2.2-6.7-7.9-6.8-2.8,0-5.6-.5-6.2-1.1-2.8-2.8,1-2.8,16.3.1,14.7,2.8,16.3,3.3,16.6,5.3.8,5.6,10.5,7.6,16.3,3.4,2.5-1.8,7-1.9,9.4-.1.6.4,2.1.8,3.5.8,2.7,0,78.5,14.6,83.5,16.1,2.8.8,2.9.9.5,1-1.4.1-59.4,4.8-129,10.6-69.5,5.7-126.5,10.3-126.7,10.2-.6-.6-7.9-94.3-7.4-94.9.6-.7,18-2.4,27-2.7h5.4c0-.1-.7,3.6-.7,3.6ZM548.5,744.5c41.3,8,88.4,17.2,104.8,20.4s29.9,6,30.1,6.2c.7.7,3.3,34.4,2.7,35s-49,4.5-108.1,9.4c-59.1,4.8-113.7,9.3-121.4,9.9-9.4.8-13.9.8-14.1.1-.7-2.3-7.6-92.7-7.2-93.2.8-.7,29.8-3.2,34.2-2.8,2.2.1,37.8,6.9,79,15ZM433.4,777.5c2,24.2,3.6,45.2,3.6,46.7,0,2.5-.4,2.7-5.2,3.2-10.5,1.2-225.4,18.6-229,18.6s-3.8-.5-3.8-1.3-1.6-21.6-3.6-46.4c-2.1-24.9-3.5-45.5-3.2-45.8s27.5-2.8,60.4-5.6c33-2.7,86-7.1,117.9-9.7,31.9-2.7,58.3-4.6,58.7-4.3.3.3,2.3,20.4,4.2,44.6ZM698.6,773.7c2.5.3,4.8,1.2,5.1,1.9.3.9,2.3,1.4,5.8,1.4s5.4.3,5.8,2c.6,2.3,2.7,2.7,2.7.5s.3-1.5.8-1.5c.4-.1,21.1,3.9,46.1,8.7,33.3,6.5,44.6,9,42.5,9.5-4,1-114.6,9.9-115.3,9.3-.4-.5-2.9-25.7-3-31.4-.1-2,.3-2.2,2.4-1.7,1.4.4,4.6.9,7.1,1.3ZM853,828c1,.5,2.1,2.4,2.5,4l.7,3.1,5.6-.6c13.6-1.4,39.7-3.3,40.1-2.9.7.7-3,15.5-4.5,18.6-1.7,3.3-2.1,3.4-20.4,4.9-8,.6-14.7,1.3-14.8,1.4-.2.2.1,2,.8,3.9,1.1,3.4,1.4,3.6,5.8,3.6s10-.5,16.6-1.1c10.6-.9,13.8-.8,12.5.5-.2.3-7.7,1-16.7,1.7-15.7,1.2-16.3,1.2-18.1-.7-1.2-1.2-3.3-7.7-5.6-16.9-2-8.2-4.1-15.7-4.6-16.7s-2.2-1.8-5.9-1.8-5-.5-5-1c0-1.3,8.6-1.3,11,0Z"/>
    <path d="M326.6,182.7c-.3,1-3.5,17.1-7.1,35.8s-10.6,54.5-15.5,79.5c-14.7,75.4-52.1,267.4-52.3,269-.2,1.7.5,1.8,91.3,19.5,30,5.8,83.1,16.2,118,23s96.1,18.7,136,26.5,91.9,17.9,115.5,22.5c23.7,4.6,86,16.8,138.5,27s113.7,22.2,136,26.5c145.1,28.3,192,37.3,192.5,36.8s1.4-4.4,22-110.3c8-41.3,21.4-109.7,29.6-152,23.5-120.4,24.1-123.7,23.2-124.5-.7-.5-37.3-7.8-180.8-35.6-9.3-1.8-43.5-8.5-76-14.8-32.4-6.3-85.8-16.7-118.5-23.1s-79.1-15.4-103-20.1-50.2-9.8-58.5-11.4c-16.4-3.2-125.2-24.4-246-47.9-42.3-8.3-91.2-17.8-108.5-21.1-17.3-3.4-32.5-6.4-33.7-6.7-1.5-.3-2.3.1-2.7,1.4ZM408,292.5c49.8,9.7,127.4,24.8,172.5,33.6s89.9,17.5,99.5,19.4c24.1,4.7,163,31.7,215.5,42,23.7,4.6,65.3,12.7,92.5,18s49.6,9.8,49.8,9.9c.1.2-3.3,18.7-7.7,41.2s-8.3,42.8-8.7,45c-.3,2.3-1,4.7-1.4,5.4-.8,1.4-5,.6-167-31-27.8-5.5-102.7-20.1-166.5-32.5s-131.7-25.7-151-29.4c-19.2-3.8-80.9-15.8-137-26.7s-102.2-19.9-102.4-20.1c-.4-.3,16.7-89.5,17.7-92.1.2-.7,1.2-1,2.1-.8.9.3,42.3,8.4,92.1,18.1ZM447,402c42.6,8.3,106,20.6,140.8,27.4s63.4,12.5,63.7,12.7c.2.2-.7,5.6-2,11.9-1.2,6.3-5.3,27.2-9,46.5-3.8,19.2-6.9,35.1-7,35.3-.2.2-9.4-1.5-20.6-3.7s-91-17.8-177.4-34.6c-86.3-16.8-157.5-30.7-158.1-30.9-.7-.3,2.1-16.5,8.2-47.3,5.1-25.7,9.3-46.8,9.3-46.9.1,0,16.9,3.2,37.4,7.2,20.4,4,72.1,14.1,114.7,22.4ZM1061.8,441.1c11.1,2.1,15.2,7.6,12.8,17-1.5,5.6-4.1,8.4-8.9,9.4-2.7.7-15.5-1.2-17.6-2.5-.8-.4-.3-4.4,1.4-13,1.4-6.7,2.5-12.5,2.5-12.7s.8-.2,1.8.1c.9.3,4.5,1,8,1.7ZM777.5,466.4c63.3,12.3,143.4,27.9,178,34.7,34.7,6.7,63.1,12.3,63.2,12.4.4.2-17.8,92.9-18.3,93.4s-8.1-.8-97.9-18.4c-41.2-8-100.4-19.6-131.5-25.6-113.3-22.1-131-25.6-131.6-26.2-.6-.5,15.6-86.7,17.2-92,.4-1.4,1.2-1.7,3.2-1.3,1.5.4,54.5,10.7,117.7,23ZM1095.4,447.6c8.5,1.8,8.6,1.8,7.7,5.2-.8,3-2.1,3.2-9.8,1.8-3.5-.6-4.3-.5-4.3.7s1.5,1.7,5,2.2c2.7.4,5.2,1,5.5,1.5.9,1.5-.7,7.1-2,6.6-.7-.2-3.4-.8-6-1.2-7-1-4.9,1.1,2.6,2.5l6.1,1.2-.6,3.1c-.3,1.8-.8,3.3-1,3.6-.3.2-5-.6-10.7-1.7-5.6-1.2-10.3-2.1-10.5-2.1-.8,0-.3-3.9,1.8-14.7l2.2-11.3,3.5.6c2,.3,6.7,1.3,10.5,2ZM1125.6,454.2c4.3,2.1,5.5,7.8,2.8,13.4-1.8,3.8-7.2,6-11.9,4.8-2.2-.5-2.6-.2-3.1,2.5-.4,1.7-.9,3.1-1.3,3.1-2.1,0-8.1-2.2-8.1-3,0-1.2,4-22.2,4.5-23.6.4-1.3,13.2.8,17.1,2.8ZM1151.1,458.9c.8.9,5.2,26.1,4.6,26.7-.2.3-2.3.2-4.6-.2-3.2-.5-4.3-1.2-4.7-3-.8-3.1-7.9-4.5-9.8-1.9-1,1.4-2.1,1.6-5.4,1-2.3-.4-4.2-1.1-4.2-1.5,0-.9,11.4-18.4,13.9-21.3,1.2-1.4,2.3-1.7,5.6-1.2,2.2.4,4.3,1,4.6,1.4ZM1175.5,463.4c8.9,1.9,10.9,4,10.2,11-.3,3.6-1.1,5.5-2.7,6.8-2.2,1.8-2.2,2-.7,5.8.8,2.2,1.2,4.2.9,4.4-.4.2-2.7-.2-5.1-.8-3.9-.9-4.6-1.6-5.3-4.4-1-3.7-2.9-3.8-3.8-.3-.3,1.2-.8,2.2-1.2,2.2-.5-.1-1.8-.1-3-.1-5,0-5.2-.8-2.7-14.3,2.1-11.7,2.4-12.6,4.3-12.2,1.2.3,5.2,1.1,9.1,1.9ZM1213.4,471.8c-.1.7-.2,2.3-.2,3.7-.2,2.3-.5,2.5-4,1.9l-3.8-.6-1.3,7.9c-.7,4.4-1.6,8.5-2,9.2-.8,1.3-9.1.5-9.1-.9s.7-4.2,1.6-8.5c1.8-8.7,1.5-10.5-2.1-10.5s-3.1-1.3-1.9-5.6l.5-2,11.2,2.1c7.1,1.3,11.2,2.5,11.1,3.3ZM329.9,482.1c137.7,26.8,179.5,35,179.7,35.2.3.3-17.7,92.1-18.1,92.6-.2.2-18.1-3.1-39.7-7.3-68-13.3-119.1-23.3-157.3-30.7-20.3-3.9-37.1-7.2-37.2-7.3s.7-4.2,1.7-9.1c1-5,5-25.8,9-46.3,5.7-29.3,7.6-37.2,8.8-37.2s24.7,4.5,53.1,10.1ZM1060.6,478.6c7.1,1.4,13,2.7,13.2,2.8.1.2,0,2.2-.4,4.5-.7,4.7-.8,4.7-10.1,2.7-6-1.3-6.3-1.3-6.9.7-.8,2.5.6,3.3,6.7,4.1,7.7,1,7.8,1.1,6.7,5.9-.5,2.3-1,4.3-1.2,4.4-.2.2-3.4-.3-7.2-1.1s-7-1.3-7.1-1.2c-.2.1-.7,2.4-1.2,5s-1,4.9-1.2,5.1-2.8-.2-5.7-.7c-4.7-1-5.3-1.3-4.9-3.2.3-1.2,1.8-8.7,3.3-16.9,1.5-8.1,2.8-14.7,2.9-14.7s6,1.2,13.1,2.6ZM1093.4,485c13.8,2.8,16.6,5.3,16.6,14.4s-.7,5-3.4,8.2l-3.3,3.9,1.8,5.4,1.9,5.4-5-.7c-7.2-1-7.9-1.4-9-5.8-1.7-6.1-5.9-6.2-6-.1,0,2.5-1,2.7-7.2,1.7-4.6-.8-4.7-.9-1.3-17.5,3.3-16.5,3.4-16.9,4.4-16.9s5.2.9,10.5,2ZM1145.5,496.8c8.3,5.8,9.7,17.1,3,24.9-9.2,10.8-28.8,6.4-32.4-7.2-2.1-8.2,2.3-17.2,9.9-20.4,1.4-.6,5.4-.9,9-.6,5,.4,7.4,1.1,10.5,3.3ZM1174,501c1.1.6,2,3.5,2.9,8.9.7,4.5,1.6,8.1,2,8.1s2.6-3.2,5.1-7.1l4.5-7,4.8.6c6.4.8,7.8,1.4,7.3,3.4-.2.9-1.7,8.3-3.2,16.5l-2.9,14.8-4.3-.6c-2.4-.3-4.7-.8-5.2-1.1-.4-.2-.1-3.5.6-7.1.8-3.7,1.3-6.8,1.2-7-.2-.1-1.9,2.2-3.7,5.1-3.6,5.6-3.9,5.7-9.8,4-.6-.2-1.4-2.3-1.8-4.7-1.3-8.3-1.8-8.6-3.1-1.4-.7,3.8-1.5,7-1.7,7.3-.6.5-8.1-.7-9.4-1.6-.7-.4.1-6.4,2.1-16.9l3.1-16.4,4.9.7c2.7.3,5.7,1,6.6,1.5ZM552,525.4c18.4,3.6,68.4,13.3,111,21.6s80.5,15.7,84.3,16.4c3.7.7,7,1.5,7.3,1.8.5.6-17,91.5-17.8,92.3s-21.4-3.6-46.9-8.5c-25.5-5-79-15.4-118.9-23.2-39.9-7.7-72.9-14.4-73.3-14.8-.5-.4.1-5.4,1.2-11.1s5-25.7,8.6-44.4c7.8-40,7.2-37.7,9.3-37.1.9.3,16.8,3.4,35.2,7ZM1048.8,524.1c6.1,1.5,8.2,3.4,8.2,7.4s-3.9,8-7.9,7.2c-2.7-.6-3.2-.3-3.7,1.9-.6,2.2-1,2.4-3.8,1.8-1.7-.3-3.2-.8-3.4-.9-.2-.2.5-4.4,1.4-9.4,2-10,1.7-9.8,9.2-8ZM1066.4,529.5c-.1,1.1-.5,4.4-.9,7.2-.7,4.9-.6,5.3,1.3,5.3,3.2,0,5.2,1.1,5.2,2.7s2.3-1.9,5.1-6.2c4.9-7.4,5.2-7.7,8.2-7.1,1.7.3,3.3.8,3.5,1.1.5.4,1.9,7.2,2.8,13.5.3,1.9.7,4.1.9,4.7.7,2.1-4,1.5-6.9-.8-2.2-1.7-3.5-2-6.7-1.5-2.4.4-7.7-.1-13.1-1.1l-9-1.7.5-4.1c.4-2.2,1.1-6.4,1.7-9.3,1.2-5.2,1.3-5.3,4.3-5,2.5.2,3.2.8,3.1,2.3ZM1104.8,535.1c5.5,1,6.2,1.4,6.2,3.5s-.5,2.4-3,2.4-3,.5-3,1.5-.5,3.7-1.1,6.5c-.9,4.1-1.4,5-3.2,5-4.3,0-5-1.3-3.8-6.9,1.5-7.1,1.4-8.1-.9-8.1s-2-.7-2-3.1.3-3,2.3-2.6c1.2.3,5,1.1,8.5,1.8ZM1123.8,538.7c3,.4,4.2,1,4.2,2.2,0,3.2-1.4,4-5.3,3.2-2.8-.7-3.7-.6-3.7.5s1.6,1.6,3.6,2c3.1.6,3.5,1,3.2,3.3-.2,1.4-.7,2.5-1.3,2.5-.5-.1-2.5-.4-4.2-.7-3-.6-3.3-.4-3.3,1.8s-.8,3.5-4.4,2.8c-2.7-.6-2.8-.8-2.3-4.7.3-2.3,1.1-6.5,1.8-9.5q1.1-5.3,4.3-4.7c1.7.4,5,.9,7.4,1.3ZM1145.3,544.8c4.4,4.1,3.3,12.7-2,15.1-10.4,4.8-20.5-5.7-13.8-14.5,3.8-5,10.7-5.2,15.8-.6ZM1162.7,546.5c5.3,1.2,7,7.1,3.2,11.8-1.6,2.1-1.8,3.1-1,4.6,1.5,2.6,1.4,4.1-.1,3.7-.7-.3-2.5-.7-4-1-2.1-.5-2.8-1.2-2.8-3.1,0-3-1.6-3.3-2.5-.5-.7,2.1-3.9,2.7-6.3,1.2-1-.7-.9-2.4.3-8.8.9-4.3,1.8-8.4,2-9.1.4-1.1,1.8-.9,11.2,1.2ZM1178.2,550.4c.4.6.8,2,.8,3.1.1,4.4,1.6,4.8,3.9,1.1s3-4,7-2.9c2.1.5,2.3,1,1.8,4.7-1.4,9.9-2.9,14.6-4.5,14.6-3.3,0-4.1-1.4-3.3-5.3,1.1-4.5.7-4.7-1.4-.7-2,3.9-5.1,4-6.7.2l-1.2-2.7-.4,2.7c-.3,2.9-2.4,3.6-5.1,1.9-1.5-.9-1.3-3.6,1-14.2q1.1-5,4.2-4.3c1.8.3,3.5,1.2,3.9,1.8ZM791.6,572.1c17,3.3,42.8,8.3,57.4,11.1s26.8,5.3,27.2,5.7-16.8,92.1-17.5,92.7c-.3.3-115.7-22.3-116.1-22.7-.3-.2.4-4.5,1.4-9.4.9-5,5-25.8,9-46.3,4-20.4,7.3-37.2,7.4-37.2s14.1,2.7,31.2,6.1ZM1079.5,583.1c7.8,1.4,12.2,3.8,17.2,9.2,5.2,5.7,7,9.1,9.2,18,5.6,22.1-2,51.7-17.1,67-7.9,7.9-14.9,11.1-24.8,11.1s-15.2-1.6-20-6c-7.3-6.6-8.9-17.5-3.7-25.1,3.5-5.1,7.6-6.9,13.3-5.7,5.8,1.1,8.8,4.7,8.7,10-.1,4.8-3.5,8.1-9.8,9.7-7.6,1.9-6.9,6.8,1.4,10.3,9.6,4,17.6-1.5,22.1-15.5,1.6-4.7,5-20.6,5-23.1s-2.3-.1-5.1.6c-8.3,2.2-19.5-.7-26.4-6.7-14.4-12.7-9.1-42.7,9-51.4,7.6-3.5,12.1-4.1,21-2.4ZM1155.3,590.6c4.9,2.5,6.6,4.4,7.3,8,.8,4.3-2.4,9-6.7,9.9l-3.1.7,3.1,3.2c3.9,4.1,4.9,9.1,2.7,13.4-2.4,4.7-5.6,6.3-12.3,6.4-7.5.1-11.9-2.1-13.9-6.9-2.8-6.7,2-12.2,8.2-9.4,3.2,1.4,3,6-.4,7.7-3.5,1.7-3.7,2.2-1.7,4.4,4.8,5.3,11.5-1.1,11.5-10.9s-2.1-6.8-6.5-7.3c-1.8-.2-3.1-1-3.3-1.9-.2-1.4.5-1.5,4.5-1.2,6,.6,7.1-.5,8-7.6.7-5.7-.6-8.1-4.2-8.1s-5,2.4-2.9,5.8c2,3.5,1.4,5.7-1.6,6.5-2.7.7-7-3.2-7-6.3s1.3-3.5,2.9-5.1c2.4-2.4,3.8-2.9,7.6-2.9s6,.7,7.8,1.6ZM942,601.3c45.3,8.9,57.5,11.6,57.3,12.8-.3,1.8-15,77.6-16.6,85.4-1.2,5.6-1.4,6-3.7,5.6-5.5-.7-114.3-22.1-114.7-22.5-.4-.3,16.1-86.6,17.3-90.9.3-.9,1.1-1.7,1.7-1.7.7.1,27.1,5.2,58.7,11.3ZM1145.8,666.6c.2.1-.8,5.9-2.2,12.9s-2.3,13.1-2,13.6,1.6.9,3,.9,2.4.6,2.4,1.6-.7,1.5-3.5,1.1c-2.4-.4-3.5-.2-3.5.6s-.3,2.8-.6,4.8c-.6,3.3-.4,3.7,2,4.3,1.4.3,2.6,1.1,2.6,1.6,0,1.2.4,1.3-7.7-.4-3.7-.8-8.5-1.7-10.5-2-2.1-.4-3.8-1.2-3.8-1.8s1.3-.9,3.4-.5c3.1.5,3.4.3,4-2.5,1.2-6.2,1-6.5-5.4-7.7-3.3-.7-6-1.7-6-2.2s4.7-6.6,10.5-13.4c10.2-12,10.7-12.4,13.8-11.8,1.8.3,3.3.7,3.5.9Z"/>
    <path d="M428.7,241.1c-4.4,2.6-6,10.9-3,16,2.9,4.8,9.6,5.1,13.4.6,4-4.9,3-15.3-1.6-17.1-2.5-.9-6.8-.7-8.8.5Z"/>
    <path d="M305.1,398c-1.7,8-1.6,8.7,2.5,9.4,9,1.7,13.2-9.5,4.8-13-5.4-2.3-6.1-1.9-7.3,3.6Z"/>
    <path d="M331.5,440.8c-1.8,10.2-1.7,14.8.3,10.2.6-1.4,1.6-5.2,2.3-8.4l1.1-5.9,3.2,6c1.8,3.4,3.8,7.5,4.6,9.2.7,1.7,1.9,3.1,2.6,3.1s1.4-.2,1.4-.4.9-4.8,2-10.1c2.4-11.5,2.3-10.5.6-10.5s-1.7,2.5-2.6,7.5c-.7,4.1-1.6,7.5-1.9,7.5s-2.7-4.1-5.1-9c-2.4-5-4.9-9-5.5-9s-1.9,4.3-3,9.8Z"/>
    <path d="M359.3,438.2c-1.5,1.8-3.2,9.2-3.3,14,0,3.2.5,4,3.1,5.3,4.6,2.4,10.8,2.4,12.5,0,2.3-3.1,2.9-6.6,1.3-7.6-2.2-1.4-4.9-1-4.9.6s.7,1.5,1.5,1.5c1.7,0,1.9,1.8.6,3.9-1.1,1.7-9.4.7-11.1-1.4-1.4-1.7.6-12.9,2.6-14.6,2.1-1.7,9.7.2,10.9,2.9,1.3,2.9,2.5,2.8,2.5-.2s-2.1-4.7-8.7-5.3c-4.3-.4-6.2-.2-7,.9Z"/>
    <path d="M393.5,445.3c-.9,1.4-1.5,3.8-1.3,5.4.3,2.4,1,3,6.1,4.7,6,1.9,7.2,3.9,4.2,6.9-1.1,1.2-2.3,1.3-5.2.6-2.1-.5-4.1-.9-4.4-.9s-.9-.9-1.2-2c-.6-2.5-2.7-2.6-2.7-.2s3.5,5.3,9.4,5.9l5.6.6,1.5-3.8c1.5-3.3,1.5-3.9.1-6.1-1-1.3-3.4-2.8-5.8-3.5-4.8-1.2-5.8-2.2-5.1-5,.4-1.3,1.4-1.9,3.2-1.9,4.1,0,7.1,1.1,7.1,2.6s.7,1.4,1.5,1.4c2.3,0,1.8-2.8-1-4.6-1.3-.9-4.2-1.8-6.4-2.1-3.4-.5-4.1-.2-5.6,2Z"/>
    <path d="M663.5,497.2c-1.4,6.1-3.5,17.1-3.5,18.4,0,2.5,1.9,1.5,2.6-1.4,1.5-6.7,1.2-6.4,6.2-5.7,8.4,1.1,8.3,1.1,7.6,6.6-.4,3.2-.3,4.9.4,4.9,1.3,0,1.7-1.2,3.6-11.8.9-4.6,1.3-8.8,1-9.3-1-1.7-2.1,0-2.8,4.1-.7,4.5-1,4.5-8.7,2.9l-5.1-1.1.6-4.9c.7-5-.8-7.1-1.9-2.7Z"/>
    <path d="M691.3,502.5c-1.6,1.1-2.4,3.3-3.3,8.5-.7,3.9-.9,7.7-.6,8.6.8,2,6.7,4.4,10.9,4.4s6.5-2.5,7.9-9.8c1.5-8.2.4-10.5-5.6-12.1-5.8-1.4-6.7-1.4-9.3.4ZM701.6,505c2.6,1,2.7,1.2,2.1,6.9-.8,7.3-1.4,8.8-3.8,9.4-2.3.6-9.1-1.1-10-2.5-.3-.5-.2-3.1.2-5.6,1.7-9.3,1.7-9.2,5.4-9.2s4.6.5,6.1,1Z"/>
    <path d="M716.6,507.3c-2.4,1.7-5.1,14.4-3.7,17.4,1.9,4.2,13,5.7,15.5,2.1,2-2.8,2.1-7.8.2-7.8s-2.1-.3-3-.6c-1-.4-1.6-.1-1.6.9s.9,1.7,2.1,2c1.7.5,1.9.9.9,2.6-1.2,2.4-6.7,2.9-10.2,1-1.8-1-2-1.7-1.4-6,1.1-8,2.1-9.9,5.5-9.9s8.1,1.7,8.1,3.5.7,1.5,1.5,1.5,1.5-.5,1.5-1.1c0-5.1-10.7-9-15.4-5.6Z"/>
    <path d="M740,512.9c-2.7,5.2-.1,9.3,6.8,10.7,3.9.8,4.6,1.7,3.7,5.1-.6,2.4-.9,2.5-5.3,1.9-3.1-.4-5.2-1.3-6.1-2.6-1.7-2.5-3.1-2.6-3.1-.1s3.5,4.7,8.6,5.5c5.3.9,8.7-1.6,8.7-6.4s-2.1-5.8-7.5-6.6c-4.1-.7-5.3-2.5-3.7-5.5.8-1.6,1.7-1.9,4.7-1.3,2,.3,4.5,1.6,5.4,2.8,2.1,2.6,3.5,1.4,2-1.8-1.7-3.8-12.3-5.1-14.2-1.7Z"/>
    <path d="M763.6,517.2c-3.5,16.2-3.9,20.7-1.7,19.4.4-.3,1.3-3.7,2-7.6.7-3.8,1.6-7,2-7s1.7,2.3,2.9,5.2l2.2,5.2,4.6-4.4,4.7-4.5-.7,4c-1.7,10.8-1.8,12.5-.8,12.5s1.6-1,3.8-12.3c.9-4.8,1.4-9,1-9.4-.3-.4-3.1,1.7-6.1,4.7l-5.4,5.4-2.6-5.7c-1.4-3.2-2.5-6.2-2.5-6.7,0-2-3-.9-3.4,1.2Z"/>
    <path d="M814.1,535.2c-3.3,5.1-5.7,9.6-5.4,10.2.4.5,1.6-.2,2.7-1.5,1.9-2.2,2.6-2.4,6.4-1.7,5.3.9,6.2,1.4,6.2,3.8s1.7,3.6,2.5,2.8-4-22.8-5.2-22.8-3.9,4.1-7.2,9.2Z"/>
    <path d="M835.4,538.7c-1,5.4-1.9,10.2-1.9,10.8,0,1.3,9.7,3.4,13,2.8,3.3-.7,5.6-5,6.2-12.2.6-6.6-.6-8.2-7.9-10-7.7-1.8-7.4-2.1-9.4,8.6ZM849.2,534.8c1.6,1.5,1.6,2.3.4,7.3-1.8,7.9-2.1,8.2-7.5,7.4-2.5-.4-4.9-1-5.3-1.3-.3-.4.1-4.2.9-8.5l1.6-7.8,4.1.6c2.3.4,4.9,1.4,5.8,2.3Z"/>
    <path d="M286.1,496c-1.9,8.8-1.2,9.9,5.6,10,2.4,0,6.3-4.3,6.3-7.1s-4.1-6.7-7.7-7.4q-3.1-.6-4.2,4.5Z"/>
    <path d="M309.2,531.2c-3.9,5-2,9.2,4.8,10.8,4.9,1.2,5.1,1.4,4.8,4.4-.4,3.6-1.9,4.2-7.6,2.7-2.8-.8-4.2-1.8-4.6-3.4-.5-1.8-.8-1.9-1.5-.8-2.3,3.5,2.9,7.2,10.2,7.3,4.3,0,6.6-2.1,6.7-6.2,0-3.8-1.3-5.1-6.6-6.5-3.9-.9-5-1.7-5.2-3.5-.5-3.3,1-4.2,5.8-3.4,2.9.5,4.4,1.3,4.7,2.5.7,2.7,2.5,2.4,2.1-.3-.2-1.2-1.4-2.8-2.8-3.5-3.2-1.6-9.5-1.7-10.8-.1Z"/>
    <path d="M353.5,539.2c-1.1,3.2-3.6,19-3.1,19.6.9.9,1.8-.5,2.5-4q.7-3.3,6.6-3.3c5.9,0,6,0,7.1-3.5.6-1.9.8-4.4.4-5.5-1.2-3.4-12.5-6.1-13.5-3.3Z"/>
    <path d="M407,550.5c-.7.8-1.7,4.9-2.3,9.1-1.1,7.4-1.1,7.7,1.2,9.5,3,2.5,10.2,2.6,12.3.1,2.3-2.6,4.2-13.6,2.8-16.2-2.1-3.8-11.5-5.5-14-2.5ZM416,552.1l3.3,1.2-.7,5.9c-.9,8.5-2,10.2-6.4,9.4-5.8-.9-6.6-2.4-5.2-9.2,1.8-8.7,2.7-9.4,9-7.3Z"/>
    <path d="M445.5,557.6c-1,1-1.5,2.9-1.3,5,.1,2-.4,4-1.5,5.2-2.2,2.4-2.2,6.5.1,8.5,2.1,1.9,8.3,3.1,11,2.3,2.7-.9,4.5-6.1,3.1-8.7-.7-1.5-.6-2.3.6-3.5,1.6-1.7,2-5.1.7-7.2-.9-1.3-6.4-3.2-9.4-3.2s-2.4.7-3.3,1.6Z"/>
    <path d="M561,580.4c-1.8,2.3-3.9,13.7-2.9,16.3,1.1,3.1,4.3,4.5,9.2,4.1,3.7-.3,4.4-.7,5.9-3.8,2.8-5.9,3.3-12.2,1.1-14.9-2.5-3.1-11.2-4.2-13.3-1.7ZM571.7,583.1c2.5,2.2.4,14.4-2.8,15.4-2.6.9-8.9-1.3-8.9-3,0-2.9,2.3-12.1,3.3-13.3,1.2-1.5,6.1-.9,8.4.9Z"/>
    <path d="M586.3,584.2c-1.7.8-2.6,2.7-3.9,8.5-1.5,6.7-1.5,7.5,0,9.8,1,1.4,3,2.7,5.1,3.1,7.7,1.4,10.3-1.4,11.2-12.2.5-5.7.4-6.3-1.8-7.7-3.3-2-8-2.7-10.6-1.5ZM594.6,587.2c2.4,1.1,2.6,1.5,2,6-1.3,9.7-3,11.1-10.5,9.1-2.2-.6-2.3-.9-1.7-5.9,1.2-10.3,3.4-12.3,10.2-9.2Z"/>
    <path d="M613.9,589.6c-3.6,4.3-11.7,17.9-11.2,18.8.4.5,1.7-.3,2.9-1.7,2.2-2.6,2.5-2.7,7.4-1.6,4.3.9,5,1.4,5,3.4s1.6,4.2,2.7,3.1-3.7-22.5-4.7-23.1c-.4-.3-1.4.2-2.1,1.1Z"/>
    <path d="M631.6,593.2c-.9,2.5-3.6,17-3.6,18.9,0,4.1,1.9,1.6,3-3.9.6-3.1,1.5-6.6,1.9-7.7.8-1.8,1.1-1.6,2.6,2,3,7,3.3,7.1,8.2,2.3,5.1-5,5.1-4.8,1.8,9.9-.4,1.5-.1,2.3.8,2.3,1.7,0,6-20,4.6-21.4-.5-.6-2.9,1.2-5.9,4.4-2.8,2.9-5.2,5.1-5.5,4.8-.3-.2-1.6-3.1-2.9-6.4-2.4-5.8-4.2-7.7-5-5.2Z"/>
    <path d="M768.7,626.3c-3.7,3.4-6.7,6.7-6.7,7.4s2.4,1.5,5.3,2c4.9.8,5.2,1,4.9,3.6-.4,3.4,1.5,3.5,2.8.1.6-1.4,1.4-2.3,1.9-1.9.5.3,1.2.1,1.6-.4.3-.5-.2-1.4-1.2-1.9-1.5-.9-1.6-1.6-.5-6.2,2.5-11,1.4-11.4-8.1-2.7Z"/>
    <path d="M1075,589.4c-4.1,1.3-5.8,4.3-9.1,15.5-1.5,5.3-2.2,10.3-2.3,18.3-.1,10.4,0,11.1,2.3,12.9,1.4,1.2,3.9,1.9,6.3,1.9,5,0,9.1-3.8,10.8-10.1.7-2.4,1.8-6.5,2.6-9.1,1.6-5.4,2.3-19.9,1.1-24-.5-1.8-2.1-3.5-4.5-4.7-3.1-1.6-4.2-1.7-7.2-.7Z"/>
    <path d="M889.1,644.3c-1.4,1.8-4.2,15.2-3.5,17.1,1.2,3.2,10.9,5.1,13.8,2.7,1.8-1.5,3-7.1,2.2-9.9-.7-2.1-5.3-4.2-9.2-4.2s-2.4-.6-2.4-1.9c0-2.7,1.2-3.2,6.1-2.5,2.9.5,4.3,1.3,4.6,2.5.7,2.7,2.5,2.4,2.1-.3-.2-1.2-1.4-2.8-2.8-3.5-3.3-1.7-9.5-1.6-10.9,0Z"/>
    <path d="M910.3,657.2c-2.2,11.8-2.3,11.5,6.4,12.4,7.4.8,8.7-.5,8.9-8.6,0-3.1.4-6.2.8-6.8,2-3.2-4.5-7.2-11.6-7.2s-2.7.3-4.5,10.2Z"/>
    <path d="M1289.5,370.2c-.2.7-3.8,19.1-8,40.8-4.3,21.7-10.3,53-13.5,69.5s-11.8,60.4-19,97.5-15.3,78.7-18,92.5c-14,71.3-16.1,82.7-15.4,83.4s13.5,3.2,28.9,6c35.5,6.7,90,17.2,130,25.2,17.1,3.4,31.9,6.2,33,6.3,1.4.1,2.1-.6,2.3-2.4.4-3,26.2-136,33.4-172s5.3-26.6,5.5-28c2.2-12.1,27.6-142.8,31.8-163.7,1.9-9.5,3.5-17.6,3.5-18.1s-1.7-1.2-3.7-1.5c-2.1-.3-22.5-4.2-45.3-8.7-103.9-20.3-143.3-28-144.3-28s-.9.6-1.2,1.2ZM1376.7,390.6c28.1,5.4,29.3,5.7,28.8,7.8-.4,1.8-18.8,96-30.1,154-1.9,9.9-3.6,18.1-3.8,18.3-.4.4-61.7-11.5-62.3-12.1s0-2.6,11.6-62.1c3.8-19.8,10.2-52.4,14.1-72.5s7.3-37.3,7.6-38.3c.4-1.3,1.2-1.7,2.7-1.3,1.2.2,15.4,3,31.4,6.2ZM1448.5,404.5c15.9,3.1,29.2,5.9,29.4,6.1.3.3-3,18.3-7.3,40.2-4.2,21.8-11.8,60.8-16.8,86.7-5,25.8-9.2,47.2-9.4,47.4-.3.3-58-10.7-66-12.6l-2.1-.4,2.8-13.7c1.6-7.5,5.7-28.8,9.3-47.2,15.5-79.8,21.7-111.6,22.1-112.6.2-.8,1.7-.9,4.7-.3,2.4.4,17.3,3.3,33.3,6.4ZM1343.3,570.5c14.7,2.8,26.9,5.4,27.1,5.6s-2.5,15-6,32.9-10.4,53.4-15.4,79-10.7,54.8-12.6,65c-1.9,10.1-3.6,18.6-3.8,18.7-.1.1-14.3-2.5-31.4-5.8-20.2-4-31.2-6.6-31.2-7.3s2.9-16,6.4-34.2c3.6-18.1,9.7-49.3,13.6-69.4,10.7-55.3,17.1-87.3,17.7-89.3.6-2.2-1.6-2.5,35.6,4.8ZM1397.1,581c39.1,7.5,45,8.7,45.6,9.4.7.6-36.6,193.6-37.6,194.8-.7.8-65.8-11.6-66.9-12.7-.6-.5,2.9-19.3,17.8-95.5,4.5-22.8,10.6-54.1,13.5-69.5,5.3-27.2,6.1-30.5,6.8-30.5s9.5,1.8,20.8,4ZM1260.1,692.9c4.7,4.8,3.7,13-2.1,16.4-4.1,2.5-7.5,2.1-11.2-1.1-2.7-2.5-3.1-3.6-3.1-7.7s.4-5.2,3.1-7.7c4.4-3.9,9.3-3.8,13.3.1Z"/>
    <path d="M860.6,708.3c-1.9,1.9-3.2,7-8.4,33.8-6.4,32.6-6.8,35.8-5.2,38.8,1.4,2.8,4.5,3.6,33,9.1,14.6,2.8,34.4,6.7,44,8.6s18.5,3.4,19.6,3.4,3.2-1.1,4.5-2.4c2.1-2.1,3.2-6.7,8.8-35.3,4.1-21.1,6.2-33.9,5.7-35.6-.4-1.8-1.8-3.3-3.9-4.2-3.3-1.5-89.1-18.5-93.4-18.5s-3.4,1-4.7,2.3ZM891.2,724c1,1.2,1.8,3.4,1.8,4.9v2.7l22.3,4.3c12.2,2.4,22.4,4.5,22.6,4.7.7.7-9.3,16.6-11.3,17.9-1.9,1.2-4,1-17.1-1.5-8.3-1.7-15.6-3-16.2-3s-1.3,1.3-1.3,3.4.6,3.8,1.3,4.4c.6.5,7.5,2.2,15.2,3.6,16.4,3.2,17.7,3.5,17,4.5-.2.5-7.7-.6-16.7-2.4s-16.5-3.8-17.6-5.1c-1.1-1.5-1.2-5.2-.7-19l.7-17.1-2.3-1.7c-1.3-.9-3.6-1.6-5.1-1.6s-2.8-.5-2.8-1.1c0-2,8.3-.3,10.2,2.1Z"/>
    <path d="M977.5,753.1c-2.6,13.2-4.6,24.2-4.4,24.4s2,.5,3.9.7l3.4.3,4.7-24c5.1-25.4,5.1-25.5-.2-25.5h-2.7l-4.7,24.1Z"/>
    <path d="M991.4,732.4c-.2,1.2-2.4,12-4.8,24.1-4.4,22.6-4.4,23.5-.1,23.5s2.4-2.1,6.4-23.3c2.5-12.7,4.6-23.7,4.8-24.3.2-.7-1-1.4-2.7-1.6-2.5-.4-3.1-.1-3.6,1.6Z"/>
    <path d="M1008.5,735.2c-.3,1.2-8.4,42.6-8.8,45.7-.2,1.3,5.1,3.6,6.1,2.7.1-.2,2.4-11.1,5.1-24.2,4.1-20.9,4.5-24,3.2-24.6-2.6-1.1-5.1-.9-5.6.4Z"/>
    <path d="M1033.8,763.7c-4.1,21.2-4.7,27.5-2.2,25.1.6-.7,9.4-45,9.4-47.5s-.6-1.3-1.3-1.3-2.7,7.2-5.9,23.7Z"/>
    <path d="M1045,743.2c-.1,1.2-2,12.2-4.4,24.3s-4.3,22.1-4.2,22.2,2,.5,4.1.8l4,.7,4.7-24.3c2.6-13.4,4.6-24.4,4.5-24.5s-2.1-.5-4.4-.9c-4-.6-4.3-.5-4.3,1.7Z"/>
    <path d="M1053,765.7c-2.4,12.6-4.5,23.5-4.7,24.4-.4,1.6,2.4,3.5,3.5,2.4s2.7-11.2,5.2-24.3c4.6-23.2,4.7-25.1,1.4-25.2-.6,0-2.9,10.1-5.4,22.7Z"/>
    <path d="M1065,745.5c0,.2-2,10.7-4.5,23.2-5,25.6-5,25.3-3.1,25.3s2.6-6.6,6-23.8c2.5-13.2,4.6-24.2,4.6-24.5s-.7-.7-1.5-.7-1.5.2-1.5.5Z"/>
    <path d="M1073.9,746.3c0,.1-2.2,11-4.8,24.2-4.1,20.2-4.6,24.1-3.4,24.8.8.5,1.6.7,1.8.5.4-.4,9.5-45.8,9.5-47.5s-2.8-2.7-3.1-2Z"/>
    <path d="M1089.5,774.2c-3.3,17.2-4.3,24.4-3.6,25.1s1.4.7,2,.1c.4-.5,2.7-10.8,5-22.9,2.4-12.1,4.4-22.7,4.7-23.6.3-1-.3-1.8-1.5-2.2-1.8-.4-2.3,1.4-6.6,23.5Z"/>
    <path d="M1095.6,775.6c-2.5,13-4.4,23.9-4.1,24.4.6,1,5.4,1.9,6,1,1-1.6,9.5-47.1,9-48-.3-.6-1.9-1-3.4-1h-2.9l-4.6,23.6Z"/>
    <path d="M1110,753.3c0,.1-2.2,11.2-4.9,24.5-5,25.3-5,25.9-.5,25,1.5-.2,2.6-4.5,6.4-24.1,3.7-18.9,4.4-24,3.3-24.3-.7-.2-2-.6-2.8-.9-.8-.2-1.5-.3-1.5-.2Z"/>
    <path d="M1124.7,781.2c-4.6,24.1-4.7,26.6-1.2,25.5.8-.3,10.8-47.8,10.1-48.3,0-.1-1-.4-2.1-.8-2-.6-2.3.7-6.8,23.6Z"/>
    <path d="M1150.5,761.9c-.2.4-2.4,11.2-4.9,24.1-4.7,24.1-4.7,24.9-.6,25,1.2,0,2.5-5.2,5.9-23.3,2.4-12.7,4.6-23.7,4.8-24.3.4-1.2-4.5-2.6-5.2-1.5Z"/>
    <path d="M1159.6,764.7c-.2,1-2.4,11.8-4.7,24.1-3.7,18.9-4.1,22.4-2.9,23.2.8.5,1.6.7,1.9.5.2-.3,2.5-11.3,5.1-24.4,3.8-19.7,4.4-24.1,3.2-24.6-1.9-.7-2-.7-2.6,1.2Z"/>
    <path d="M1165.2,768.8c-3.8,17.7-8.2,42.7-7.8,43.8.3.8,1.6,1.4,3,1.4,2.3,0,2.5-.6,7.1-24.1,2.6-13.2,4.5-24.2,4.3-24.3-.1-.2-1.5-.6-3-1-2.5-.6-2.7-.3-3.6,4.2Z"/>
    <path d="M1211.5,770.3c-.2.6-2.4,11.4-4.8,24l-4.4,22.7,2.6.6c1.4.3,3.1.7,3.8.9s1.4-.4,1.7-1.3c1.3-4.7,8.9-46.2,8.5-46.5-1.3-1.2-7-1.5-7.4-.4Z"/>
    <path d="M1220.7,773.2c-1.4,5.8-8.8,45.1-8.5,45.3.2.2,1.5.6,3,1,2,.5,2.7.3,3.1-1.2,1.1-3.6,8.9-45.5,8.5-45.8-.2-.2-1.5-.6-2.9-1-2.2-.5-2.7-.3-3.2,1.7Z"/>
    <path d="M1233.6,797.6c-2.5,13-4.4,23.9-4.1,24.4.3.4,1.8,1,3.4,1.2l2.9.4,4.7-23.9c2.5-13.1,4.5-24,4.3-24.2-.2-.1-1.7-.5-3.4-.8l-3.2-.6-4.6,23.5Z"/>
    <path d="M1267.5,782.2c-1.2,5.1-8.5,43.4-8.5,44.5s3,2,3,1,2-10.5,4.5-23.1c2.4-12.6,4.2-23.3,3.9-23.7-1-1.6-2.4-.9-2.9,1.3Z"/>
    <path d="M1274.5,784.2c-.6,2.8-7.2,36.9-8,41.9-.7,3.6-.6,3.6,3.1,4.2,2.1.4,4.1.2,4.4-.3s2.5-11.1,4.9-23.5c4.8-24.6,4.8-24.5-1.1-24.5s-2.9.6-3.3,2.2Z"/>
    <path d="M1286.5,785.2c-.7,2.2-8.5,43.5-8.5,45.2,0,2.5,3.9,2,4.5-.7,1.3-6,8.5-43.3,8.5-44.4,0-1.7-3.9-1.7-4.5-.1Z"/>
    <path d="M1294.5,786.3c-.5,1.4-8.2,41-8.7,44.7-.2,1.7.2,2.5,1.2,2.5s2.4-4.9,5.5-20.5c2.3-11.3,4.4-21.9,4.8-23.7.4-2.3.2-3.3-.9-3.7-.8-.3-1.7,0-1.9.7Z"/>
    <path d="M973.7,788.8c-.9,1-1.9,4.3-2.3,7.3-.7,6.1.1,7.5,5.3,8.5,4.3.9,6.9-2,7.8-8.7.7-4.7.5-5.5-1.5-7.1-2.8-2.3-7.2-2.3-9.3,0Z"/>
    <path d="M1302.7,789.2c-.3,1.3-2.4,11.9-4.7,23.7-3.3,17.1-3.9,21.6-2.8,22.2.7.5,1.6.5,2,.1s2.5-10.2,4.7-21.7c2.3-11.6,4.4-22.2,4.7-23.8.5-2.2.2-2.7-1.4-2.7s-2.2.9-2.5,2.2Z"/>
    <path d="M1313,811.7c-2.3,12-4.4,22.8-4.7,24-.6,2.8,2.3,3.3,3.1.5.8-2.5,8.6-43.3,8.6-44.9s-.6-1.3-1.4-1.3-2.5,5.9-5.6,21.7Z"/>
    <path d="M1319.1,813.8c-2.4,12.5-4.6,23.2-4.8,23.8s.5,1.4,1.6,1.7c2.5.6,1.8,2.8,7.1-24.3,4.6-23.5,4.6-24,2.3-24s-2.5,3.4-6.2,22.8Z"/>
    <path d="M997.6,794.2c-.7,1.3-1.7,4.4-2,6.9-.8,5.4,1.2,8,6.4,8.1,4.3.1,5.8-1.8,6.6-8.6s.5-6.1-1.1-7.2c-3-2.2-8.2-1.8-9.9.8Z"/>
    <path d="M1329.5,793.3c-.2.6-2.4,11.4-4.8,23.9-4.6,24.2-4.6,23.8.7,23.8s2.4-1.3,6.8-23.8c2.5-13,4.5-23.7,4.4-23.8,0-.1-1.6-.4-3.4-.7-2.2-.5-3.4-.3-3.7.6Z"/>
    <path d="M1334.7,817.6c-4.8,24.6-4.8,25.3-.6,25.4.9,0,1.9-1,2.2-2.3,1.6-6.7,8.8-44.9,8.5-45.2s-1.5-.6-2.9-1l-2.6-.7-4.6,23.8Z"/>
    <path d="M1358.6,799.7c-.9,3.1-8.6,43.1-8.6,44.7s3.7,2,4.4-.2c.9-3.1,8.6-42.8,8.6-44.5s-3.7-2.2-4.4,0Z"/>
    <path d="M1375.1,825.5c-2.5,12.9-4.3,23.7-4,23.9.2.2,1.4.7,2.6,1,1.8.6,2.3.3,2.8-1.6,2.8-12.7,8.5-44.3,8.1-45.4-.3-.8-1.6-1.4-2.8-1.4-2.2,0-2.5,1-6.7,23.5Z"/>
    <path d="M1385.1,825.7c-2.3,12-4.5,22.8-4.8,24-.4,1.8-.1,2.3,1.6,2.3s2.1-.1,2.1-.3,2-10.5,4.5-23.1c2.5-12.7,4.5-23.3,4.5-23.8s-.8-.8-1.9-.8c-1.6,0-2.3,2.7-6,21.7Z"/>
    <path d="M1391.1,827.2c-2.4,12.2-4.5,23-4.7,24-.4,1.2.4,1.8,2.6,2.3,1.7.4,3.3.5,3.4.3.4-.5,9.4-47.3,9.2-47.5s-1.6-.6-3.3-.9l-3-.6-4.2,22.4Z"/>
    <path d="M1083.7,809.8c-1,1.1-2,4.5-2.3,7.9-.6,5.6-.5,6.2,1.5,7.3,3.8,2,8.4.9,10-2.4,2-4.3.2-7.4-4.9-8.2-3-.5-4-1.1-3.8-2.3.5-2.6,6.4-2.7,8-.2,1.5,2.5,2.8,2.7,2.8.5s-5.5-4.4-8.3-4.4-2.1.8-3,1.8Z"/>
    <path d="M1203,829.5c-.5,1.3-1.2,4.7-1.6,7.5l-.7,5,3.9,1.6c6.7,2.8,10.1-.5,10.3-10.3s-1.6-6.3-7.4-6.3-3.7.5-4.5,2.5Z"/>
    <path d="M1229.4,831.7c-1.8,1.3-3.2,4.5-3.9,9.4-.6,4.1-.4,4.8,1.6,6.3,2.8,1.9,8.2,2.1,9.7.3.7-.7,1.7-3.7,2.3-6.6,1-4.8.9-5.5-.7-7.2-2.1-2.1-7.3-3.4-9-2.2Z"/>
    <path d="M1312.9,850.7c-.6,1.6-1.1,5.3-1.2,8.3l-.2,5.5,3.8.9c4.8,1.2,6.8.1,8.1-4.4.8-2.8.7-3.5-1.3-5.1-1.3-1.1-3.7-1.9-5.3-1.9-2.3,0-2.9-.4-2.6-1.7.6-3.1,8.8-2.9,8.8.2s.5,1.5,1,1.5c1.8,0,1-2.9-1.2-4.4-1.2-.9-3.7-1.6-5.5-1.6-2.7,0-3.5.5-4.4,2.7Z"/>
    <path d="M1062.2,857.2c-1.5,1.5-1.6,11.2-.2,13.9.8,1.4,2.1,1.9,5.5,1.9s6.5-1.6,6.5-6.4-3.3-5.6-7.6-4.6c-2.6.6-3.7.5-4.1-.5-.7-2.1.4-3.3,3.8-4,2.2-.5,3.6-.2,5.1,1.2q2,1.8,1.7-.2c-.3-1.6-1.3-2.1-4.9-2.3-2.6-.2-5,.2-5.8,1Z"/>
    <path d="M975.6,864.3c-1.6,1.1-1.8,2.4-1.4,7.5.2,3.4,1,6.8,1.6,7.4,1.5,1.5,7.8,1.4,9.7-.2,2.1-1.8,2-12.3-.1-14.4s-7.4-2.1-9.8-.3Z"/>
    <path d="M950.5,866.7c-2.6,2.5-1.6,12,1.4,14.5,2.7,2.1,6.7,1.6,9.2-1.3,1.8-1.9,1.6-9.6-.3-13.2-1.2-2.3-8-2.3-10.3,0Z"/>
    <path d="M202.6,667.8c-2.8.3-2.8.5-2.2,4.9.3,2.5.6,5.6.6,6.9,0,1.9.5,2.4,2.5,2.4,3.6,0,8.2-2.6,9-5.1,1.7-5.2-3.4-9.9-9.9-9.1Z"/>
    <path d="M265.2,695.6c-1.9,1.3-2.2,2.4-2.2,8.7,0,9.8,1.4,11.7,8.3,11.7s9.7-1.9,9.7-7.1-.2-3.9-3-3.9-4,1.5-1,2.3c2,.5,2.6,2.3,1.2,4.3-1.1,1.7-8.6,2.6-10.4,1.1-2.1-1.6-3.4-13-1.6-14.4.7-.6,3.2-1.4,5.5-1.8,3.6-.6,4.3-.4,5.3,1.4.6,1.2,1.5,2.1,2,2.1,1.4,0,1.2-3.4-.2-4.8s-10.9-1.5-13.6.4Z"/>
    <path d="M252.5,704.2l.6,8.3-7.1-7.8c-4-4.2-7.7-7.7-8.2-7.7s-.9,3.3-.4,10.2c.8,10.6,1.1,12.2,2.7,11.2.6-.3.7-3.8.3-8.7l-.7-8.2,7.3,8.2c4,4.6,7.7,8,8.2,7.7s.7-4,.3-8.7c-.8-10.3-1.3-12.7-2.6-12.7s-.9,2.6-.4,8.2Z"/>
    <path d="M584.3,771.9c-1,1.8-2.7,4.8-3.9,6.8l-2.1,3.6-4.3-5.7c-5.2-6.9-7.1-7.3-6.5-1.4.3,2.4.7,7.3,1.1,11,.8,10,2.8,8.7,2.2-1.4l-.5-8.2,3.6,4.2c2,2.3,4.2,4.2,4.9,4.2s2.2-2,3.4-4.5,2.6-4.5,3-4.5.8,1.7.8,3.7c0,5.8,1.1,11.3,2.3,11.3s0-20.1-1.3-21.4-1.6.4-2.7,2.3Z"/>
    <path d="M547.1,781.2c-1.6,5.1-3.1,10.2-3.3,11.2-.5,3.2,2,2.9,2.7-.3.6-3,.9-3.1,5.9-3.1s5.4.3,6.4,2.5c1.1,2.5,3.2,3.4,3.2,1.5s-10-21-11-21-2.2,4.2-3.9,9.2Z"/>
    <path d="M523,775.3c-2.4,1.2-2.5,1.7-2.5,9.5s1.2,11.5,7.4,11.4c4.9-.1,7.7-1.5,8.6-4.3,1.2-3.5-.6-14-2.6-16s-7.2-2.5-10.9-.6ZM533,778.9c.5,1.1,1,4.5,1,7.5,0,4.4-.4,5.7-1.9,6.6-2.7,1.4-6.6,1.3-7.9-.3-1.6-2.1-2.5-12.6-1.2-14.3,1.9-2.2,8.7-1.8,10,.5Z"/>
    <path d="M498.1,777.7c-2.3,1.9-2.5,3.1-2.3,10.9.3,7,2.5,9.7,8,9.6,5.6-.1,7.9-1.5,8.6-5.4.9-4.9-.8-13.9-3-15.5-2.5-1.9-8.8-1.6-11.3.4ZM509.1,781.7c.5,1.5.9,4.9.7,7.7-.3,4.4-.6,5.2-2.9,6-1.4.5-3.7.6-5.1.3-2.3-.6-2.6-1.3-3.2-7.7-.4-3.8-.4-7.4-.1-8,.3-.5,2.6-1,5.1-1,3.9,0,4.6.3,5.5,2.7Z"/>
    <path d="M209.4,767.8c-1.3.8-.4,13.9.9,13.4.4-.1,2.1-.2,3.7-.2,3.7,0,7-3.1,7-6.5,0-5.1-7.5-9.4-11.6-6.7Z"/>
    <path d="M379.6,787.6c-1.9,1.8-2,4.7-.5,7.6.8,1.4.8,2.3,0,3.1-1.7,1.7-1.3,6.2.7,8,2.1,1.9,9.2,2.3,12.3.7,1.4-.8,1.9-2.1,1.9-5s-.4-4.1-.9-4.5c-.5-.3-.7-2-.4-3.9.9-5.5-.9-7.6-6.7-7.6s-5.4.6-6.4,1.6Z"/>
    <path d="M340.9,791.1c-1.8,1.8-1.9,2.8-1.3,9.2.4,4.2,1.3,7.9,2.2,8.9,2,2.3,8.9,2.4,12.1.2,2.1-1.5,2.3-2.2,1.9-9.6-.4-9.3-1.6-10.8-8.5-10.8s-4.9.6-6.4,2.1ZM351.3,792.2c1.9,1.5,3.4,12.5,1.9,14.6-1.1,1.7-7.3,2.5-9.1,1.3-1-.7-1.5-3.1-1.5-8.2-.1-6.9,0-7.3,2.4-8,3.7-1.1,4.5-1,6.3.3Z"/>
    <path d="M288.7,793.7l-3.8.4.6,7.7c.8,10.8,1.4,14.2,2.5,14.2s1-2,1-4.5c0-4.2.2-4.5,2.8-4.5,6.6,0,9.5-2.9,8.5-8.3-.6-3-3.8-5.8-6.3-5.5-.8.1-3.2.3-5.3.5Z"/>
    <path d="M242.8,798.1c-2.4.9-2.8,1.6-2.8,4.9,0,4.9,1.9,6.4,8.4,6.5,4.9,0,5.1.1,5.4,2.9.4,3.5-1,4.6-6.5,4.6s-4.5-.5-5.2-1.7c-1.2-2.3-2.5-1.1-1.6,1.6.8,2.5,5,3.4,10.5,2.2,4.7-1.1,6-2.3,6-6.2s-2.1-6.2-8.3-6.1c-5.2,0-5.8-.2-6.3-2.3-.3-1.3-.3-2.9.1-3.4.9-1.5,8.8-1.4,10.3.1s2.9.1,1.6-2c-1.3-2-7.6-2.6-11.6-1.1Z"/>
    <text class="st2" transform="translate(338.9 340.8) rotate(11.1) scale(1.3 1)"><tspan x="0" y="0" xml:space="preserve">l a w a n s o n  B o d e</tspan></text>
    <text class="st2" transform="translate(424.2 472) rotate(11.1) scale(1.4 1)"><tspan x="0" y="0">Bodesx</tspan></text>
  </g>
  <text/>
  <text class="st0" transform="translate(338.9 250.5) rotate(11.1) scale(.9 1)"><tspan x="0" y="0">PANDA EXPRESS</tspan></text>
  <text class="st1" transform="translate(1270.4 682) rotate(-78.9) scale(.7 1)"><tspan x="0" y="0">PANDA EXPRESS</tspan></text>
  <text class="st0" transform="translate(195.7 520) rotate(-1.7) scale(.9 1)"><tspan x="0" y="0">P</tspan></text>
</svg>